<!-- icons.svg -->
<svg xmlns="http://www.w3.org/2000/svg" style="display: none;">

  <symbol id="avatar" viewBox="0 0 24 24">
    <path d="M12 12c2.7 0 5-2.3 5-5s-2.3-5-5-5-5 
             2.3-5 5 2.3 5 5 5zm0 2c-3.3 0-10 
             1.7-10 5v3h20v-3c0-3.3-6.7-5-10-5z"/>
  </symbol>

  <symbol id="settings" viewBox="0 0 24 24">
    <path d="M19.14 12.94c.04-.31.06-.63.06-.94s-.02-.63-.06-.94l2.03-1.58
             a.5.5 0 0 0 .12-.64l-1.92-3.32a.5.5 0 0 
             0-.6-.22l-2.39.96a7.027 7.027 0 0 
             0-1.63-.94l-.36-2.54A.488.488 0 0 
             0 14.5 2h-5a.5.5 0 0 0-.49.42l-.37 
             2.54c-.59.24-1.13.55-1.63.94l-2.39-.96a.5.5 
             0 0 0-.6.22L2.7 9.54a.5.5 0 0 
             0 .12.64l2.03 1.58c-.04.31-.06.63-.06.94s.02.63.06.94L2.82 
             14.62a.5.5 0 0 0-.12.64l1.92 
             3.32c.14.24.42.34.68.22l2.39-.96c.5.39 
             1.04.7 1.63.94l.37 2.54c.04.27.27.48.54.48h5c.27 
             0 .5-.21.54-.48l.36-2.54c.59-.24 
             1.13-.55 1.63-.94l2.39.96c.26.12.54.02.68-.22l1.92-3.32a.5.5 
             0 0 0-.12-.64l-2.03-1.58zM12 
             15.5c-1.93 0-3.5-1.57-3.5-3.5S10.07 
             8.5 12 8.5s3.5 1.57 3.5 3.5-1.57 
             3.5-3.5 3.5z"/>
  </symbol>

</svg>
